# xmcd
#
# Track frame offsets: 
#        150
#        18862
#        38037
#        57465
#        75607
#        94820
#        112617
#        130497
#        154232
#        173530
#
# Disc length: 2630 seconds
#
# Revision: 0
# Processed by: cddbd v1.5.2PL0 Copyright (c) Steve Scherf et al.
# Submitted via: ExactAudioCopy v0.95b4
#
DISCID=700a440a
DTITLE=Dan Colehour - Straight To The Highway
DYEAR=2007
DGENRE=Country
TTITLE0=Quarry Town
TTITLE1=This Time
TTITLE2=The Likes Of Us
TTITLE3=Lucky Man
TTITLE4=Another Man's Crime
TTITLE5=Leaving Meridian
TTITLE6=Go Easy
TTITLE7=Father's Son
TTITLE8=My America
TTITLE9=Your Secret's Safe With Me
EXTD=
EXTT0=
EXTT1=
EXTT2=
EXTT3=
EXTT4=
EXTT5=
EXTT6=
EXTT7=
EXTT8=
EXTT9=
PLAYORDER=
